<svg width="496" height="368" viewBox="0 0 496 368" fill="none" xmlns="http://www.w3.org/2000/svg">
<g id="heroimg" clip-path="url(#clip0)">
<g id="Layer 2">
<g id="Layer 1">
<path id="Vector" d="M324.302 40.332H19.7025C10.4564 40.332 2.96094 47.8204 2.96094 57.0578V132.525C2.96094 141.763 10.4564 149.251 19.7025 149.251H324.302C333.548 149.251 341.043 141.763 341.043 132.525V57.0578C341.043 47.8204 333.548 40.332 324.302 40.332Z" fill="#2F80ED"/>
<path id="Vector_2" d="M341.043 108.503V142.727C341.043 146.332 333.773 149.251 324.857 149.251H19.1673C10.2248 149.251 2.98096 146.332 2.98096 142.727V122.918C23.589 128.372 47.0522 132.05 71.1169 134.334C100.198 137.095 130.172 137.9 160.02 138.019C195.71 138.164 231.996 137.299 265.591 132.459C296.377 128.042 324.923 119.88 341.043 108.503Z" fill="#2C68B9"/>
<path id="Vector_3" d="M125.195 40.6094C93.3442 42.762 49.1077 40.682 21.6193 48.5992C8.59227 52.3432 5.3669 59.6198 3.27173 65.6353L3.30478 48.7973C3.30478 46.638 3.48984 44.2873 6.94654 42.6365C11.2228 40.6028 18.7376 40.4443 25.3536 40.4509C57.8387 40.4575 93.3508 39.0312 125.195 40.6094Z" fill="#2F80ED"/>
<path id="Vector_4" d="M323.985 40.4641H19.3853C10.1392 40.4641 2.6438 47.9525 2.6438 57.1899V132.657C2.6438 141.895 10.1392 149.383 19.3853 149.383H323.985C333.231 149.383 340.726 141.895 340.726 132.657V57.1899C340.726 47.9525 333.231 40.4641 323.985 40.4641Z" stroke="black" stroke-width="8" stroke-miterlimit="10"/>
<path id="Vector_5" d="M476.978 209.373H128.804C119.557 209.373 112.062 216.861 112.062 226.098V301.566C112.062 310.803 119.557 318.292 128.804 318.292H476.978C486.225 318.292 493.72 310.803 493.72 301.566V226.098C493.72 216.861 486.225 209.373 476.978 209.373Z" fill="#2F80ED"/>
<path id="Vector_6" d="M493.72 277.543V311.768C493.72 315.373 485.538 318.292 475.445 318.292H130.337C120.244 318.292 112.062 315.373 112.062 311.768V291.958C135.327 297.412 161.817 301.09 188.982 303.375C221.778 306.135 255.644 306.941 289.345 307.06C329.623 307.205 370.601 306.34 408.525 301.5C443.297 297.082 475.524 288.921 493.72 277.543Z" fill="#2C68B9"/>
<path id="Vector_7" d="M250.046 209.65C214.091 211.803 164.124 209.723 133.119 217.64C118.4 221.39 114.772 228.667 112.399 234.682L112.445 217.838C112.445 215.679 112.65 213.328 116.556 211.677C121.388 209.643 129.867 209.485 137.336 209.491C174.005 209.498 214.104 208.072 250.046 209.65Z" fill="#2F80ED"/>
<path id="Vector_8" d="M476.615 209.505H128.44C119.194 209.505 111.698 216.993 111.698 226.23V301.698C111.698 310.935 119.194 318.424 128.44 318.424H476.615C485.861 318.424 493.356 310.935 493.356 301.698V226.23C493.356 216.993 485.861 209.505 476.615 209.505Z" stroke="black" stroke-width="8" stroke-miterlimit="10"/>
<path id="Vector_9" d="M429.734 3.24216H68.8101C63.0208 3.24216 58.3276 7.9309 58.3276 13.7148V352.885C58.3276 358.669 63.0208 363.358 68.8101 363.358H429.734C435.524 363.358 440.217 358.669 440.217 352.885V13.7148C440.217 7.9309 435.524 3.24216 429.734 3.24216Z" fill="white"/>
<path id="Vector_10" d="M441.869 17.7559V70.799H59.9866V17.7559C59.9866 8.93407 64.6792 1.76965 70.469 1.76965H431.387C437.177 1.76965 441.869 8.93407 441.869 17.7559Z" fill="#DCEAEF"/>
<path id="Vector_11" d="M429.278 2.64127H68.354C62.5647 2.64127 57.8716 7.33 57.8716 13.1139V354.886C57.8716 360.67 62.5647 365.359 68.354 365.359H429.278C435.068 365.359 439.761 360.67 439.761 354.886V13.1139C439.761 7.33 435.068 2.64127 429.278 2.64127Z" stroke="black" stroke-width="8" stroke-miterlimit="10"/>
<path id="Vector_12" d="M93.8531 47.6879C98.2334 47.6879 101.784 44.1403 101.784 39.7642C101.784 35.388 98.2334 31.8404 93.8531 31.8404C89.4728 31.8404 85.9219 35.388 85.9219 39.7642C85.9219 44.1403 89.4728 47.6879 93.8531 47.6879Z" fill="#2F80ED"/>
<path id="Vector_13" d="M119.629 47.6879C124.01 47.6879 127.561 44.1403 127.561 39.7642C127.561 35.388 124.01 31.8404 119.629 31.8404C115.249 31.8404 111.698 35.388 111.698 39.7642C111.698 44.1403 115.249 47.6879 119.629 47.6879Z" fill="#2F80ED"/>
<path id="Vector_14" d="M145.406 47.6879C149.786 47.6879 153.337 44.1403 153.337 39.7642C153.337 35.388 149.786 31.8404 145.406 31.8404C141.026 31.8404 137.475 35.388 137.475 39.7642C137.475 44.1403 141.026 47.6879 145.406 47.6879Z" fill="#2F80ED"/>
<path id="Vector_15" d="M128.77 148.492C128.77 140.938 131.361 136.698 136.331 136.698C141.302 136.698 143.893 140.938 143.893 148.492C143.893 156.046 141.302 160.318 136.331 160.318C131.361 160.318 128.77 156.079 128.77 148.492ZM140.746 148.492C140.746 141.829 139.127 139.115 136.338 139.115C133.549 139.115 131.93 141.829 131.93 148.492C131.93 155.154 133.588 157.901 136.338 157.901C139.087 157.901 140.746 155.174 140.746 148.492ZM136.331 146.339C136.763 146.335 137.186 146.46 137.547 146.697C137.907 146.934 138.189 147.273 138.356 147.671C138.523 148.069 138.568 148.507 138.485 148.93C138.402 149.354 138.194 149.742 137.889 150.047C137.583 150.352 137.194 150.56 136.77 150.643C136.347 150.726 135.908 150.681 135.51 150.515C135.112 150.348 134.772 150.066 134.535 149.706C134.298 149.346 134.173 148.923 134.177 148.492C134.175 148.208 134.23 147.928 134.337 147.666C134.445 147.404 134.603 147.166 134.804 146.966C135.004 146.765 135.243 146.607 135.505 146.499C135.767 146.392 136.048 146.337 136.331 146.339Z" fill="black"/>
<path id="Vector_16" d="M156.113 140.442L150.641 143.744L149.18 141.624L156.45 137.081H159.134V157.459H163.807V159.915H150.515V157.459H156.12V140.442H156.113Z" fill="black"/>
<path id="Vector_17" d="M201.658 140.178L203.119 142.463L191.513 149.555L203.119 156.673L201.526 158.898L188.883 151.014V148.069L201.658 140.178Z" fill="black"/>
<path id="Vector_18" d="M220.019 159.922V149.231H211.724V159.928H208.578V137.101H211.724V146.643H220.013V137.101H223.159V159.928L220.019 159.922Z" fill="black"/>
<path id="Vector_19" d="M237.276 139.749V159.928H234.13V139.749H227.072V137.108H244.448L244.117 139.749H237.276Z" fill="black"/>
<path id="Vector_20" d="M261.645 159.922L260.984 148.227C260.819 145.012 260.819 141.307 260.852 140.574H260.746L257.105 155.834H254.084L250.303 140.561H250.171C250.171 141.321 250.237 145.269 250.105 148.214L249.543 159.908H246.629L247.951 137.081H252.128L255.644 152.321H255.776L259.127 137.081H263.337L264.659 159.908L261.645 159.922Z" fill="black"/>
<path id="Vector_21" d="M269.92 159.922V137.101H273.066V157.155H283.443L283.079 159.902L269.92 159.922Z" fill="black"/>
<path id="Vector_22" d="M302.544 148.062V151.007L289.907 158.892L288.314 156.666L299.92 149.548L288.314 142.456L289.775 140.172L302.544 148.062Z" fill="black"/>
<path id="Vector_23" d="M128.77 188.229C128.77 180.675 131.361 176.436 136.331 176.436C141.302 176.436 143.893 180.675 143.893 188.229C143.893 195.783 141.302 200.075 136.331 200.075C131.361 200.075 128.77 195.81 128.77 188.229ZM140.746 188.229C140.746 181.567 139.127 178.853 136.338 178.853C133.549 178.853 131.93 181.567 131.93 188.229C131.93 194.892 133.588 197.639 136.338 197.639C139.087 197.639 140.746 194.918 140.746 188.229ZM136.331 186.077C136.763 186.073 137.186 186.197 137.547 186.435C137.907 186.672 138.189 187.011 138.356 187.409C138.523 187.806 138.568 188.245 138.485 188.668C138.402 189.091 138.194 189.48 137.889 189.785C137.583 190.09 137.194 190.297 136.77 190.381C136.347 190.464 135.908 190.419 135.51 190.252C135.112 190.085 134.772 189.804 134.535 189.444C134.298 189.083 134.173 188.661 134.177 188.229C134.174 187.946 134.228 187.664 134.335 187.401C134.443 187.139 134.601 186.9 134.802 186.699C135.002 186.498 135.241 186.339 135.503 186.231C135.766 186.123 136.047 186.068 136.331 186.07V186.077Z" fill="black"/>
<path id="Vector_24" d="M152.604 197.104H162.98L162.617 199.653H149.021V197.236C156.913 189.418 159.339 186.268 159.339 182.821C159.371 182.305 159.293 181.789 159.109 181.305C158.925 180.822 158.639 180.384 158.272 180.02C157.905 179.656 157.463 179.375 156.978 179.195C156.493 179.015 155.975 178.942 155.459 178.978C153.569 178.978 152.273 179.678 150.879 181.428L148.757 179.936C150.548 177.717 152.802 176.423 155.624 176.423C159.801 176.423 162.491 179.064 162.491 182.722C162.485 186.704 159.332 190.679 152.604 197.104Z" fill="black"/>
<path id="Vector_25" d="M201.658 179.909L203.119 182.194L191.513 189.286L203.119 196.404L201.526 198.629L188.889 190.745V187.794L201.658 179.909Z" fill="black"/>
<path id="Vector_26" d="M215.274 199.659H208.975V176.832H214.805C218.883 176.832 222.967 178.153 222.967 182.597C222.991 183.747 222.606 184.868 221.88 185.761C221.153 186.653 220.133 187.259 219.002 187.47V187.602C221.288 188.031 223.978 189.358 223.978 193.135C223.926 198.134 219.55 199.659 215.274 199.659ZM215.34 179.315H212.121V186.466H215.604C218.248 186.466 219.722 185.37 219.722 182.788C219.722 180.206 218.063 179.315 215.34 179.315ZM215.836 188.989H212.121V197.111H215.703C217.931 197.111 220.614 196.45 220.614 193.201C220.614 189.953 218.46 188.989 215.836 188.989Z" fill="black"/>
<path id="Vector_27" d="M235.756 200.075C230.151 200.075 227.27 195.407 227.27 188.315C227.27 181.362 230.151 176.429 235.756 176.429C241.361 176.429 244.243 181.171 244.243 188.256C244.249 195.215 241.354 200.075 235.756 200.075ZM235.756 179.038C232.042 179.038 230.548 182.286 230.548 188.282C230.548 194.278 232.141 197.461 235.756 197.461C239.471 197.461 240.958 194.278 240.958 188.216C240.958 182.154 239.471 179.011 235.756 179.011V179.038Z" fill="black"/>
<path id="Vector_28" d="M253.681 199.659H248.34V176.832H253.317C258.724 176.832 264.09 178.655 264.09 188.13C264.09 197.606 258.525 199.659 253.681 199.659ZM254.018 179.355H251.5V197.183H254.051C257.303 197.183 260.746 195.526 260.746 188.143C260.746 180.378 257.104 179.348 254.018 179.348V179.355Z" fill="black"/>
<path id="Vector_29" d="M277.118 190.877V199.659H273.932V190.91L266.239 176.826H269.722L275.564 187.985H275.67L281.539 176.826H284.844L277.118 190.877Z" fill="black"/>
<path id="Vector_30" d="M302.544 187.794V190.739L289.907 198.623L288.314 196.397L299.92 189.279L288.314 182.187L289.775 179.903L302.544 187.794Z" fill="black"/>
<path id="Vector_31" d="M128.77 227.96C128.77 220.406 131.361 216.167 136.331 216.167C141.302 216.167 143.893 220.406 143.893 227.96C143.893 235.514 141.302 239.787 136.331 239.787C131.361 239.787 128.77 235.547 128.77 227.96ZM140.746 227.96C140.746 221.298 139.127 218.584 136.338 218.584C133.549 218.584 131.93 221.298 131.93 227.96C131.93 234.623 133.588 237.37 136.338 237.37C139.087 237.37 140.746 234.649 140.746 227.96ZM136.331 225.828C136.763 225.824 137.186 225.948 137.547 226.185C137.907 226.423 138.189 226.762 138.356 227.16C138.523 227.557 138.568 227.996 138.485 228.419C138.402 228.842 138.194 229.231 137.889 229.536C137.583 229.841 137.194 230.048 136.77 230.132C136.347 230.215 135.908 230.17 135.51 230.003C135.112 229.836 134.772 229.555 134.535 229.195C134.298 228.834 134.173 228.412 134.177 227.98C134.175 227.697 134.23 227.416 134.337 227.154C134.445 226.892 134.603 226.654 134.804 226.454C135.004 226.254 135.243 226.095 135.505 225.988C135.767 225.88 136.048 225.826 136.331 225.828Z" fill="black"/>
<path id="Vector_32" d="M155.32 239.787C153.979 239.828 152.646 239.573 151.415 239.041C150.183 238.509 149.084 237.713 148.195 236.71L150.178 235.052C150.804 235.77 151.578 236.344 152.448 236.733C153.318 237.121 154.262 237.316 155.214 237.304C158.294 237.304 160.158 235.58 160.158 232.794C160.158 229.611 158.175 228.555 155.532 228.555H153.774L154.137 226.204H155.32C157.508 226.204 159.563 224.982 159.563 222.328C159.563 219.905 157.706 218.577 155.353 218.577C153.37 218.577 152.049 219.277 150.548 220.664L148.889 218.842C150.651 217.109 153.027 216.143 155.499 216.154C159.874 216.154 162.597 218.795 162.597 221.886C162.599 223.133 162.167 224.342 161.375 225.305C160.583 226.269 159.48 226.928 158.255 227.168V227.3C159.66 227.367 160.983 227.986 161.933 229.023C162.884 230.059 163.386 231.429 163.331 232.834C163.344 236.769 160.125 239.787 155.32 239.787Z" fill="black"/>
<path id="Vector_33" d="M201.658 219.64L203.119 221.925L191.513 229.017L203.119 236.135L201.52 238.374L188.883 230.45V227.505L201.658 219.64Z" fill="black"/>
<path id="Vector_34" d="M220.019 239.391V228.693H211.724V239.391H208.578V216.583H211.724V226.125H220.013V216.583H223.159V239.41H220.013L220.019 239.391Z" fill="black"/>
<path id="Vector_35" d="M232.65 219.073V226.528H241.07V229.043H232.65V236.895H242.967V239.377H229.523V216.583H242.742L242.379 219.099L232.65 219.073Z" fill="black"/>
<path id="Vector_36" d="M259.953 233.659H251.156L249.398 239.391H246.252L253.648 216.583H257.613L265.036 239.391H261.731L259.953 233.659ZM251.929 231.11H259.2L255.65 219.416H255.518L251.929 231.11Z" fill="black"/>
<path id="Vector_37" d="M273.568 239.391H268.228V216.583H273.205C278.611 216.583 283.978 218.406 283.978 227.881C283.978 237.357 278.406 239.391 273.568 239.391ZM273.899 219.079H271.381V236.908H273.932C277.184 236.908 280.627 235.25 280.627 227.868C280.634 220.109 277.019 219.073 273.899 219.073V219.079Z" fill="black"/>
<path id="Vector_38" d="M292.326 219.073V226.528H300.726V229.043H292.326V236.895H302.643V239.377H289.18V216.583H302.398L302.035 219.099L292.326 219.073Z" fill="black"/>
<path id="Vector_39" d="M317.785 229.321L324.48 239.391H320.733L314.606 229.717H311.691V239.391H308.545V216.583H314.546C320.25 216.583 323.231 218.762 323.231 223.041C323.251 226.435 320.865 228.522 317.785 229.321ZM314.864 219.013H311.718V227.294H314.903C318.089 227.294 319.907 226.105 319.907 223.021C319.893 220.169 318.274 219.013 314.857 219.013H314.864Z" fill="black"/>
<path id="Vector_40" d="M342.312 227.531V230.45L329.675 238.374L328.083 236.148L339.689 229.03L328.083 221.938L329.543 219.654L342.312 227.531Z" fill="black"/>
<path id="Vector_41" d="M128.77 267.692C128.77 260.138 131.361 255.898 136.331 255.898C141.302 255.898 143.886 260.164 143.886 267.692C143.886 275.219 141.295 279.518 136.325 279.518C131.355 279.518 128.77 275.279 128.77 267.692ZM140.746 267.692C140.746 261.029 139.127 258.315 136.338 258.315C133.549 258.315 131.93 261.029 131.93 267.692C131.93 274.354 133.588 277.101 136.338 277.101C139.087 277.101 140.746 274.381 140.746 267.692ZM136.331 265.539C136.763 265.536 137.185 265.662 137.545 265.9C137.905 266.138 138.186 266.478 138.352 266.875C138.518 267.273 138.561 267.712 138.477 268.134C138.393 268.557 138.185 268.946 137.88 269.25C137.574 269.554 137.185 269.761 136.761 269.843C136.338 269.926 135.899 269.881 135.502 269.714C135.104 269.547 134.765 269.265 134.528 268.905C134.291 268.545 134.166 268.123 134.17 267.692C134.168 267.408 134.223 267.127 134.331 266.864C134.439 266.602 134.598 266.364 134.8 266.163C135.001 265.963 135.24 265.804 135.503 265.697C135.766 265.59 136.047 265.536 136.331 265.539Z" fill="black"/>
<path id="Vector_42" d="M160.859 273.654V279.122H157.911V273.654H148.559V271.502L155.254 255.892L157.805 256.955L151.764 271.237H157.898L158.202 265.295H160.846V271.237H163.727V273.661L160.859 273.654Z" fill="black"/>
<path id="Vector_43" d="M201.658 259.372L203.119 261.656L191.513 268.748L203.119 275.866L201.526 278.092L188.889 270.207V267.262L201.658 259.372Z" fill="black"/>
<path id="Vector_44" d="M210.039 282.568L207.581 281.472L221.738 252.286L224.163 253.449L210.039 282.568Z" fill="black"/>
<path id="Vector_45" d="M239.92 279.122V268.425H231.606V279.122H228.459V256.295H231.606V265.836H239.92V256.295H243.066V279.122H239.92Z" fill="black"/>
<path id="Vector_46" d="M252.557 258.843V266.298H260.978V268.814H252.557V276.665H262.874V279.148H249.411V256.295H262.63L262.266 258.81L252.557 258.843Z" fill="black"/>
<path id="Vector_47" d="M279.834 273.37H271.044L269.285 279.102H266.139L273.535 256.275H277.501L284.897 279.102H281.592L279.834 273.37ZM271.81 270.821H279.081L275.531 259.127H275.393L271.81 270.821Z" fill="black"/>
<path id="Vector_48" d="M293.456 279.122H288.116V256.295H293.093C298.499 256.295 303.866 258.117 303.866 267.593C303.866 277.068 298.301 279.122 293.456 279.122ZM293.787 258.843H291.268V276.672H293.82C297.071 276.672 300.515 275.014 300.515 267.632C300.515 259.84 296.9 258.843 293.787 258.843Z" fill="black"/>
<path id="Vector_49" d="M312.207 258.843V266.298H320.627V268.814H312.207V276.665H322.537V279.148H309.061V256.295H322.28L321.876 258.843H312.207Z" fill="black"/>
<path id="Vector_50" d="M337.666 269.045L344.348 279.122H340.601L334.5 269.448H331.579V279.122H328.433V256.295H334.434C340.138 256.295 343.119 258.474 343.119 262.752C343.139 266.166 340.753 268.253 337.666 269.045ZM334.751 258.744H331.605V267.031H334.791C337.977 267.031 339.794 265.843 339.794 262.759C339.788 259.906 338.162 258.744 334.745 258.744H334.751Z" fill="black"/>
<path id="Vector_51" d="M362.193 267.262V270.207L349.556 278.092L347.963 275.866L359.55 268.748L347.944 261.656L349.404 259.372L362.193 267.262Z" fill="black"/>
</g>
</g>
</g>
<defs>
<clipPath id="clip0">
<rect width="496" height="368" fill="white"/>
</clipPath>
</defs>
</svg>
